<svg xmlns="http://www.w3.org/2000/svg" viewBox="0 0 620 400" role="img" aria-labelledby="titel" font-family="system-ui, sans-serif" font-size="17" fill="#111">
<title id="titel">Al-hörnet av fasdiagrammet Al–Cu, 0–55 vikt-% Cu och 300–700 °C: aluminiums smältpunkt 660 °C, likviduslinjen ned till den eutektiska punkten, eutektisk linje vid 548 °C, α-fasen (Al) längst till vänster med solvuslinje som lutar mot lägre Cu-halt vid lägre temperatur, och den smala fasen θ (CuAl₂) nära 54 % Cu; områdena L, α + L, L + θ och α + θ.</title>
<line x1="80.0" y1="350" x2="80.0" y2="50" stroke="#111" stroke-opacity="0.15" stroke-width="1"/>
<line x1="170.0" y1="350" x2="170.0" y2="50" stroke="#111" stroke-opacity="0.15" stroke-width="1"/>
<line x1="260.0" y1="350" x2="260.0" y2="50" stroke="#111" stroke-opacity="0.15" stroke-width="1"/>
<line x1="350.0" y1="350" x2="350.0" y2="50" stroke="#111" stroke-opacity="0.15" stroke-width="1"/>
<line x1="440.0" y1="350" x2="440.0" y2="50" stroke="#111" stroke-opacity="0.15" stroke-width="1"/>
<line x1="530.0" y1="350" x2="530.0" y2="50" stroke="#111" stroke-opacity="0.15" stroke-width="1"/>
<line x1="80" y1="350.0" x2="575" y2="350.0" stroke="#111" stroke-opacity="0.15" stroke-width="1"/>
<line x1="80" y1="275.0" x2="575" y2="275.0" stroke="#111" stroke-opacity="0.15" stroke-width="1"/>
<line x1="80" y1="200.0" x2="575" y2="200.0" stroke="#111" stroke-opacity="0.15" stroke-width="1"/>
<line x1="80" y1="125.0" x2="575" y2="125.0" stroke="#111" stroke-opacity="0.15" stroke-width="1"/>
<line x1="80" y1="50.0" x2="575" y2="50.0" stroke="#111" stroke-opacity="0.15" stroke-width="1"/>
<rect x="80" y="50" width="495" height="300" fill="none" stroke="#111" stroke-width="2"/>
<path d="M80.0,80.0 L125.0,87.5 L170.0,97.2 L215.0,107.8 L260.0,120.5 L305.0,134.8 L350.0,150.5 L378.8,163.8" fill="none" stroke="#111" stroke-width="2.5" stroke-linejoin="round" stroke-linecap="round"/>
<path d="M378.8,163.8 L404.0,155.0 L440.0,146.0 L485.0,138.5 L530.0,133.2 L560.6,131.8" fill="none" stroke="#111" stroke-width="2.5" stroke-linejoin="round" stroke-linecap="round"/>
<path d="M80.0,80.0 L98.0,99.5 L116.0,129.5 L131.3,163.8" fill="none" stroke="#111" stroke-width="2.5" stroke-linejoin="round" stroke-linecap="round"/>
<path d="M131.3,163.8 L116.9,200.0 L102.5,237.5 L93.5,275.0 L87.2,312.5 L84.0,350.0" fill="none" stroke="#111" stroke-width="2.5" stroke-linejoin="round" stroke-linecap="round"/>
<path d="M560.6,131.8 L552.5,163.8 L557.0,350.0" fill="none" stroke="#111" stroke-width="2.5" stroke-linejoin="round" stroke-linecap="round"/>
<path d="M567.8,131.8 L566.0,163.8 L564.2,350.0" fill="none" stroke="#111" stroke-width="2.5" stroke-linejoin="round" stroke-linecap="round"/>
<line x1="131.3" y1="163.8" x2="552.5" y2="163.8" stroke="#111" stroke-width="2.5"/>
<line x1="560.6" y1="131.8" x2="567.8" y2="131.8" stroke="#111" stroke-width="2.5"/>
<line x1="80.0" y1="350" x2="80.0" y2="356" stroke="#111" stroke-width="1.5"/>
<line x1="98.0" y1="350" x2="98.0" y2="353" stroke="#111" stroke-width="1.5"/>
<line x1="116.0" y1="350" x2="116.0" y2="353" stroke="#111" stroke-width="1.5"/>
<line x1="134.0" y1="350" x2="134.0" y2="353" stroke="#111" stroke-width="1.5"/>
<line x1="152.0" y1="350" x2="152.0" y2="353" stroke="#111" stroke-width="1.5"/>
<line x1="170.0" y1="350" x2="170.0" y2="356" stroke="#111" stroke-width="1.5"/>
<line x1="188.0" y1="350" x2="188.0" y2="353" stroke="#111" stroke-width="1.5"/>
<line x1="206.0" y1="350" x2="206.0" y2="353" stroke="#111" stroke-width="1.5"/>
<line x1="224.0" y1="350" x2="224.0" y2="353" stroke="#111" stroke-width="1.5"/>
<line x1="242.0" y1="350" x2="242.0" y2="353" stroke="#111" stroke-width="1.5"/>
<line x1="260.0" y1="350" x2="260.0" y2="356" stroke="#111" stroke-width="1.5"/>
<line x1="278.0" y1="350" x2="278.0" y2="353" stroke="#111" stroke-width="1.5"/>
<line x1="296.0" y1="350" x2="296.0" y2="353" stroke="#111" stroke-width="1.5"/>
<line x1="314.0" y1="350" x2="314.0" y2="353" stroke="#111" stroke-width="1.5"/>
<line x1="332.0" y1="350" x2="332.0" y2="353" stroke="#111" stroke-width="1.5"/>
<line x1="350.0" y1="350" x2="350.0" y2="356" stroke="#111" stroke-width="1.5"/>
<line x1="368.0" y1="350" x2="368.0" y2="353" stroke="#111" stroke-width="1.5"/>
<line x1="386.0" y1="350" x2="386.0" y2="353" stroke="#111" stroke-width="1.5"/>
<line x1="404.0" y1="350" x2="404.0" y2="353" stroke="#111" stroke-width="1.5"/>
<line x1="422.0" y1="350" x2="422.0" y2="353" stroke="#111" stroke-width="1.5"/>
<line x1="440.0" y1="350" x2="440.0" y2="356" stroke="#111" stroke-width="1.5"/>
<line x1="458.0" y1="350" x2="458.0" y2="353" stroke="#111" stroke-width="1.5"/>
<line x1="476.0" y1="350" x2="476.0" y2="353" stroke="#111" stroke-width="1.5"/>
<line x1="494.0" y1="350" x2="494.0" y2="353" stroke="#111" stroke-width="1.5"/>
<line x1="512.0" y1="350" x2="512.0" y2="353" stroke="#111" stroke-width="1.5"/>
<line x1="530.0" y1="350" x2="530.0" y2="356" stroke="#111" stroke-width="1.5"/>
<line x1="548.0" y1="350" x2="548.0" y2="353" stroke="#111" stroke-width="1.5"/>
<line x1="566.0" y1="350" x2="566.0" y2="353" stroke="#111" stroke-width="1.5"/>
<text x="80.0" y="372" text-anchor="middle" font-size="15">0</text>
<text x="170.0" y="372" text-anchor="middle" font-size="15">10</text>
<text x="260.0" y="372" text-anchor="middle" font-size="15">20</text>
<text x="350.0" y="372" text-anchor="middle" font-size="15">30</text>
<text x="440.0" y="372" text-anchor="middle" font-size="15">40</text>
<text x="530.0" y="372" text-anchor="middle" font-size="15">50</text>
<line x1="74" y1="350.0" x2="80" y2="350.0" stroke="#111" stroke-width="1.5"/><text x="70" y="355.0" text-anchor="end" font-size="15">300</text>
<line x1="74" y1="275.0" x2="80" y2="275.0" stroke="#111" stroke-width="1.5"/><text x="70" y="280.0" text-anchor="end" font-size="15">400</text>
<line x1="74" y1="200.0" x2="80" y2="200.0" stroke="#111" stroke-width="1.5"/><text x="70" y="205.0" text-anchor="end" font-size="15">500</text>
<line x1="74" y1="125.0" x2="80" y2="125.0" stroke="#111" stroke-width="1.5"/><text x="70" y="130.0" text-anchor="end" font-size="15">600</text>
<line x1="74" y1="50.0" x2="80" y2="50.0" stroke="#111" stroke-width="1.5"/><text x="70" y="55.0" text-anchor="end" font-size="15">700</text>
<text x="80" y="392" text-anchor="middle" font-size="16" font-weight="600">Al</text>
<text x="328" y="394" text-anchor="middle" font-size="16">Cu (vikt-%)</text>
<text x="22" y="200" text-anchor="middle" font-size="16" transform="rotate(-90 22 200)">Temperatur (°C)</text>
<text x="323.0" y="83.8" text-anchor="middle" font-size="19" font-weight="600">L (smälta)</text>
<text x="215.0" y="132.5" text-anchor="middle" font-size="16">α + L</text>
<text x="485.0" y="153.5" text-anchor="middle" font-size="15">L + θ</text>
<text x="332.0" y="252.5" text-anchor="middle" font-size="19" font-weight="600">α + θ</text>
<text x="269.0" y="159.5" text-anchor="middle" font-size="15">548 °C</text>
<text x="85.4" y="74.0" font-size="15">660 °C</text>
<line x1="92.6" y1="222.5" x2="147.5" y2="222.5" stroke="#111" stroke-width="1.2"/>
<text x="152.0" y="227.0" font-size="17" font-weight="600">α (Al)</text>
<line x1="559.7" y1="282.5" x2="507.5" y2="282.5" stroke="#111" stroke-width="1.2"/>
<text x="503.0" y="287.0" text-anchor="end" font-size="16" font-weight="600">θ (CuAl₂)</text>
</svg>
