<svg xmlns="http://www.w3.org/2000/svg" viewBox="0 0 600 352" role="img" aria-labelledby="titel" font-family="system-ui, sans-serif" font-size="17" fill="#111">
<title id="titel">Viskositet mot skjuvhastighet i log-log-skala för en polymersmälta, uppdelad i tre områden A, B och C från låg till hög skjuvhastighet.</title>
<defs>
<marker id="pil" viewBox="0 0 10 10" refX="9" refY="5" markerWidth="10" markerHeight="10" markerUnits="userSpaceOnUse" orient="auto-start-reverse"><path d="M0,1 L10,5 L0,9 z" fill="#111"/></marker>
<marker id="pilg" viewBox="0 0 10 10" refX="9" refY="5" markerWidth="13" markerHeight="13" markerUnits="userSpaceOnUse" orient="auto-start-reverse"><path d="M0,1 L10,5 L0,9 z" fill="#1f7a4d"/></marker>
</defs>
<line x1="90" y1="320" x2="590" y2="320" stroke="#111" stroke-width="2" marker-end="url(#pil)"/><line x1="90" y1="320" x2="90" y2="20" stroke="#111" stroke-width="2" marker-end="url(#pil)"/><path d="M100,90 L210,90 C260,90 285,115 310,135 L440,239 C465,259 500,270 540,271 L580,271" fill="none" stroke="#111" stroke-width="3" stroke-linejoin="round" stroke-linecap="round"/><line x1="240" y1="30" x2="240" y2="320" stroke="#111" stroke-width="1.5" stroke-dasharray="5 5"/><line x1="470" y1="30" x2="470" y2="320" stroke="#111" stroke-width="1.5" stroke-dasharray="5 5"/><circle cx="165" cy="44" r="16" fill="none" stroke="#111" stroke-width="2"/><text x="165" y="51" text-anchor="middle" font-size="19" font-weight="700">A</text><circle cx="355" cy="44" r="16" fill="none" stroke="#111" stroke-width="2"/><text x="355" y="51" text-anchor="middle" font-size="19" font-weight="700">B</text><circle cx="530" cy="44" r="16" fill="none" stroke="#111" stroke-width="2"/><text x="530" y="51" text-anchor="middle" font-size="19" font-weight="700">C</text><text x="585" y="345" text-anchor="end" font-size="16">Skjuvhastighet (log)</text><text x="45" y="175" text-anchor="middle" font-size="16" transform="rotate(-90 45 175)">Viskositet η (log)</text>
</svg>
